<svg width="6" height="12" viewBox="0 0 6 12" fill="none" xmlns="http://www.w3.org/2000/svg">
<path d="M0.105724 5.94806C0.108719 5.84323 0.129684 5.74739 0.168618 5.66054C0.207553 5.57369 0.267453 5.48983 0.348317 5.40896L4.84977 1.05127C4.97855 0.922483 5.13729 0.858091 5.32597 0.858091C5.45176 0.858091 5.56557 0.888041 5.6674 0.947941C5.77222 1.00784 5.85459 1.0887 5.91449 1.19053C5.97738 1.29236 6.00883 1.40617 6.00883 1.53196C6.00883 1.71765 5.93845 1.88088 5.79768 2.02164L1.7275 5.94357L5.79768 9.86998C5.93845 10.0137 6.00883 10.177 6.00883 10.3597C6.00883 10.4884 5.97738 10.6038 5.91449 10.7056C5.85459 10.8074 5.77222 10.8883 5.6674 10.9482C5.56557 11.0111 5.45176 11.0425 5.32597 11.0425C5.13729 11.0425 4.97855 10.9766 4.84977 10.8448L0.348317 6.48715C0.264458 6.40629 0.203061 6.32243 0.164126 6.23558C0.125191 6.14573 0.105724 6.04989 0.105724 5.94806Z" fill="#000C57"/>
<path d="M0.105724 5.94806C0.108719 5.84323 0.129684 5.74739 0.168618 5.66054C0.207553 5.57369 0.267453 5.48983 0.348317 5.40896L4.84977 1.05127C4.97855 0.922483 5.13729 0.858091 5.32597 0.858091C5.45176 0.858091 5.56557 0.888041 5.6674 0.947941C5.77222 1.00784 5.85459 1.0887 5.91449 1.19053C5.97738 1.29236 6.00883 1.40617 6.00883 1.53196C6.00883 1.71765 5.93845 1.88088 5.79768 2.02164L1.7275 5.94357L5.79768 9.86998C5.93845 10.0137 6.00883 10.177 6.00883 10.3597C6.00883 10.4884 5.97738 10.6038 5.91449 10.7056C5.85459 10.8074 5.77222 10.8883 5.6674 10.9482C5.56557 11.0111 5.45176 11.0425 5.32597 11.0425C5.13729 11.0425 4.97855 10.9766 4.84977 10.8448L0.348317 6.48715C0.264458 6.40629 0.203061 6.32243 0.164126 6.23558C0.125191 6.14573 0.105724 6.04989 0.105724 5.94806Z" fill="black" fill-opacity="0.2"/>
<path d="M0.105724 5.94806C0.108719 5.84323 0.129684 5.74739 0.168618 5.66054C0.207553 5.57369 0.267453 5.48983 0.348317 5.40896L4.84977 1.05127C4.97855 0.922483 5.13729 0.858091 5.32597 0.858091C5.45176 0.858091 5.56557 0.888041 5.6674 0.947941C5.77222 1.00784 5.85459 1.0887 5.91449 1.19053C5.97738 1.29236 6.00883 1.40617 6.00883 1.53196C6.00883 1.71765 5.93845 1.88088 5.79768 2.02164L1.7275 5.94357L5.79768 9.86998C5.93845 10.0137 6.00883 10.177 6.00883 10.3597C6.00883 10.4884 5.97738 10.6038 5.91449 10.7056C5.85459 10.8074 5.77222 10.8883 5.6674 10.9482C5.56557 11.0111 5.45176 11.0425 5.32597 11.0425C5.13729 11.0425 4.97855 10.9766 4.84977 10.8448L0.348317 6.48715C0.264458 6.40629 0.203061 6.32243 0.164126 6.23558C0.125191 6.14573 0.105724 6.04989 0.105724 5.94806Z" fill="black" fill-opacity="0.2"/>
<path d="M0.105724 5.94806C0.108719 5.84323 0.129684 5.74739 0.168618 5.66054C0.207553 5.57369 0.267453 5.48983 0.348317 5.40896L4.84977 1.05127C4.97855 0.922483 5.13729 0.858091 5.32597 0.858091C5.45176 0.858091 5.56557 0.888041 5.6674 0.947941C5.77222 1.00784 5.85459 1.0887 5.91449 1.19053C5.97738 1.29236 6.00883 1.40617 6.00883 1.53196C6.00883 1.71765 5.93845 1.88088 5.79768 2.02164L1.7275 5.94357L5.79768 9.86998C5.93845 10.0137 6.00883 10.177 6.00883 10.3597C6.00883 10.4884 5.97738 10.6038 5.91449 10.7056C5.85459 10.8074 5.77222 10.8883 5.6674 10.9482C5.56557 11.0111 5.45176 11.0425 5.32597 11.0425C5.13729 11.0425 4.97855 10.9766 4.84977 10.8448L0.348317 6.48715C0.264458 6.40629 0.203061 6.32243 0.164126 6.23558C0.125191 6.14573 0.105724 6.04989 0.105724 5.94806Z" fill="black" fill-opacity="0.2"/>
</svg>
