<svg width="14" height="14" viewBox="0 0 14 14" fill="none" xmlns="http://www.w3.org/2000/svg">
<path d="M6.57487 1.52084C3.55037 1.52084 1.0957 3.97551 1.0957 7.00001C1.0957 10.0245 3.55037 12.4792 6.57487 12.4792C9.59937 12.4792 12.054 10.0245 12.054 7.00001C12.054 3.97551 9.59937 1.52084 6.57487 1.52084Z" fill="white"/>
<path d="M6.57487 1.52084C3.55037 1.52084 1.0957 3.97551 1.0957 7.00001C1.0957 10.0245 3.55037 12.4792 6.57487 12.4792C9.59937 12.4792 12.054 10.0245 12.054 7.00001C12.054 3.97551 9.59937 1.52084 6.57487 1.52084ZM5.47904 9.73959L2.73945 7.00001L3.51202 6.22745L5.47904 8.18899L9.63772 4.0303L10.4103 4.80834L5.47904 9.73959Z" fill="#44D600"/>
</svg>
