<svg width="11" height="14" viewBox="0 0 11 14" fill="none" xmlns="http://www.w3.org/2000/svg">
<path d="M9.91062 0.373535H0.900965C0.403748 0.374087 0.000562202 0.769468 0 1.25706V12.7429C0.000563067 13.2305 0.403748 13.6259 0.900965 13.6264H9.91062C10.4078 13.6259 10.811 13.2305 10.8116 12.7429V1.25706C10.811 0.769468 10.4078 0.374086 9.91062 0.373535ZM0.900965 12.7429V1.25706H4.95531V12.7429H0.900965ZM5.85627 12.7429V1.25706H9.91062L9.91118 12.7429H5.85627ZM7.6582 6.55823V7.44175C7.6582 7.68583 7.45662 7.88352 7.20772 7.88352C6.95882 7.88352 6.75724 7.68583 6.75724 7.44175V6.55823C6.75724 6.31415 6.95882 6.11646 7.20772 6.11646C7.45662 6.11646 7.6582 6.31415 7.6582 6.55823ZM4.05434 6.55823V7.44175C4.05434 7.68583 3.85276 7.88352 3.60386 7.88352C3.35496 7.88352 3.15338 7.68583 3.15338 7.44175V6.55823C3.15338 6.31415 3.35496 6.11646 3.60386 6.11646C3.85276 6.11646 4.05434 6.31415 4.05434 6.55823Z" fill="white"/>
</svg>
