<svg width="11" height="13" viewBox="0 0 11 13" fill="none" xmlns="http://www.w3.org/2000/svg">
<g clip-path="url(#clip0_28297_304666)">
<path d="M5.99967 1.83333C4.38717 1.83333 3.08301 3.1375 3.08301 4.74999C3.08301 6.9375 5.99967 10.1667 5.99967 10.1667C5.99967 10.1667 8.91634 6.9375 8.91634 4.74999C8.91634 3.1375 7.61217 1.83333 5.99967 1.83333ZM5.99967 5.79166C5.42467 5.79166 4.95801 5.325 4.95801 4.74999C4.95801 4.17499 5.42467 3.70833 5.99967 3.70833C6.57467 3.70833 7.04134 4.17499 7.04134 4.74999C7.04134 5.325 6.57467 5.79166 5.99967 5.79166Z" fill="#000C57"/>
<path d="M5.99967 1.83333C4.38717 1.83333 3.08301 3.1375 3.08301 4.74999C3.08301 6.9375 5.99967 10.1667 5.99967 10.1667C5.99967 10.1667 8.91634 6.9375 8.91634 4.74999C8.91634 3.1375 7.61217 1.83333 5.99967 1.83333ZM5.99967 5.79166C5.42467 5.79166 4.95801 5.325 4.95801 4.74999C4.95801 4.17499 5.42467 3.70833 5.99967 3.70833C6.57467 3.70833 7.04134 4.17499 7.04134 4.74999C7.04134 5.325 6.57467 5.79166 5.99967 5.79166Z" fill="black" fill-opacity="0.2"/>
<path d="M5.99967 1.83333C4.38717 1.83333 3.08301 3.1375 3.08301 4.74999C3.08301 6.9375 5.99967 10.1667 5.99967 10.1667C5.99967 10.1667 8.91634 6.9375 8.91634 4.74999C8.91634 3.1375 7.61217 1.83333 5.99967 1.83333ZM5.99967 5.79166C5.42467 5.79166 4.95801 5.325 4.95801 4.74999C4.95801 4.17499 5.42467 3.70833 5.99967 3.70833C6.57467 3.70833 7.04134 4.17499 7.04134 4.74999C7.04134 5.325 6.57467 5.79166 5.99967 5.79166Z" fill="black" fill-opacity="0.2"/>
<path d="M5.99967 1.83333C4.38717 1.83333 3.08301 3.1375 3.08301 4.74999C3.08301 6.9375 5.99967 10.1667 5.99967 10.1667C5.99967 10.1667 8.91634 6.9375 8.91634 4.74999C8.91634 3.1375 7.61217 1.83333 5.99967 1.83333ZM5.99967 5.79166C5.42467 5.79166 4.95801 5.325 4.95801 4.74999C4.95801 4.17499 5.42467 3.70833 5.99967 3.70833C6.57467 3.70833 7.04134 4.17499 7.04134 4.74999C7.04134 5.325 6.57467 5.79166 5.99967 5.79166Z" fill="black" fill-opacity="0.2"/>
</g>
<defs>
<clipPath id="clip0_28297_304666">
<rect width="9.64267" height="12.0533" fill="white" transform="translate(0.642578 0.773376)"/>
</clipPath>
</defs>
</svg>
