<svg width="12" height="14" viewBox="0 0 12 14" fill="none" xmlns="http://www.w3.org/2000/svg">
<path d="M10.9753 3.4258L6.1499 0.547637C5.87359 0.383169 5.52931 0.383169 5.25302 0.547637L5.25247 0.548185L0.427612 3.42578C0.162826 3.58476 0.000547339 3.87094 0 4.17958V9.82068C0.000548181 10.1299 0.162826 10.4155 0.427612 10.5745L5.25247 13.4526H5.25302C5.52933 13.6171 5.87415 13.6166 6.15099 13.4521L10.9753 10.5745C11.2401 10.4155 11.4024 10.1293 11.4029 9.82069V4.17959C11.4024 3.8704 11.2401 3.58478 10.9753 3.4258ZM5.7015 1.30142L10.101 3.9257L8.17294 5.05063L4.03773 2.29359L5.7015 1.30142ZM5.7015 6.49187L1.30202 3.9257L3.20325 2.79144L7.32962 5.54245L5.7015 6.49187ZM0.877202 9.82067V4.69323L5.26293 7.25169V12.4372L0.877202 9.82067ZM6.14007 12.4374V7.25183L7.89436 6.22831V8.31592C7.89436 8.55823 8.09062 8.75449 8.33294 8.75449C8.57525 8.75449 8.77151 8.55823 8.77151 8.31592V5.71676L10.5258 4.69323V9.82124L6.14007 12.4374Z" fill="white"/>
</svg>
