<svg width="152" height="152" viewBox="0 0 152 152" fill="none" xmlns="http://www.w3.org/2000/svg">
<g clip-path="url(#clip0_1_3)">
<path fill-rule="evenodd" clip-rule="evenodd" d="M135.111 8.44447H109.778V0H135.111C144.439 0 152 7.56145 152 16.8889V42.2222H143.555V16.8889C143.555 12.2252 139.775 8.44447 135.111 8.44447ZM42.2222 0V8.44447H16.8889C12.2252 8.44447 8.44447 12.2252 8.44447 16.8889V42.2222H0V16.8889C0 7.56145 7.56145 0 16.8889 0H42.2222ZM0 109.778H8.44447V135.111C8.44447 139.775 12.2252 143.555 16.8889 143.555H42.2222V152H16.8889C7.56145 152 0 144.439 0 135.111V109.778ZM109.778 152V143.555H135.111C139.775 143.555 143.555 139.775 143.555 135.111V109.778H152V135.111C152 144.439 144.439 152 135.111 152H109.778ZM101.333 76C101.333 89.9911 89.9911 101.333 76 101.333C62.0088 101.333 50.6667 89.9911 50.6667 76C50.6667 62.0088 62.0088 50.6667 76 50.6667C89.9911 50.6667 101.333 62.0088 101.333 76ZM109.778 76C109.778 94.6548 94.6548 109.778 76 109.778C57.3451 109.778 42.2222 94.6548 42.2222 76C42.2222 57.3451 57.3451 42.2222 76 42.2222C94.6548 42.2222 109.778 57.3451 109.778 76Z" fill="white"/>
</g>
<defs>
<clipPath id="clip0_1_3">
<rect width="152" height="152" fill="white"/>
</clipPath>
</defs>
</svg>
